<svg xmlns="http://www.w3.org/2000/svg" xmlns:xlink="http://www.w3.org/1999/xlink" version="1.1" width="256" height="256" viewBox="0 0 256 256" xml:space="preserve">

<defs>
</defs>
<g style="stroke: none; stroke-width: 0; stroke-dasharray: none; stroke-linecap: butt; stroke-linejoin: miter; stroke-miterlimit: 10; fill: none; fill-rule: nonzero; opacity: 1;" transform="translate(1.4065934065934016 1.4065934065934016) scale(2.81 2.81)" >
	<path d="M 0.624 24.962 c -0.083 0.152 -0.175 0.298 -0.241 0.459 c -0.07 0.169 -0.11 0.345 -0.161 0.519 c -0.041 0.139 -0.094 0.271 -0.123 0.415 c -0.129 0.647 -0.129 1.313 0 1.959 c 0.029 0.144 0.082 0.276 0.123 0.415 c 0.051 0.174 0.091 0.35 0.161 0.519 c 0.067 0.161 0.159 0.307 0.241 0.459 c 0.073 0.134 0.132 0.273 0.218 0.402 c 0.173 0.259 0.372 0.499 0.589 0.721 c 0.012 0.013 0.02 0.028 0.033 0.04 l 16.958 16.957 c 0.977 0.977 2.256 1.465 3.536 1.465 s 2.559 -0.488 3.536 -1.465 c 1.953 -1.952 1.953 -5.118 0 -7.071 l -8.422 -8.422 H 85 c 2.762 0 5 -2.239 5 -5 s -2.238 -5 -5 -5 H 17.071 l 8.422 -8.422 c 1.953 -1.953 1.953 -5.119 0 -7.071 c -1.953 -1.952 -5.118 -1.952 -7.071 0 L 1.464 23.799 c -0.013 0.013 -0.021 0.028 -0.033 0.04 c -0.217 0.222 -0.416 0.462 -0.589 0.721 C 0.756 24.689 0.697 24.828 0.624 24.962 z" style="stroke: none; stroke-width: 1; stroke-dasharray: none; stroke-linecap: butt; stroke-linejoin: miter; stroke-miterlimit: 10; fill: rgb(0,0,0); fill-rule: nonzero; opacity: 1;" transform=" matrix(1 0 0 1 0 0) " stroke-linecap="round" />
	<path d="M 89.614 64.589 c 0.045 -0.108 0.067 -0.225 0.104 -0.336 c 0.066 -0.197 0.14 -0.391 0.182 -0.598 c 0.065 -0.323 0.1 -0.654 0.1 -0.989 S 89.966 62 89.9 61.677 c -0.042 -0.207 -0.115 -0.4 -0.181 -0.597 c -0.037 -0.112 -0.059 -0.228 -0.105 -0.337 c -0.092 -0.221 -0.214 -0.424 -0.335 -0.628 c -0.045 -0.075 -0.076 -0.157 -0.125 -0.23 c -0.183 -0.273 -0.392 -0.528 -0.624 -0.759 L 71.577 42.172 c -1.951 -1.952 -5.119 -1.952 -7.07 0 c -1.953 1.953 -1.953 5.119 0 7.071 l 8.422 8.423 H 5 c -2.761 0 -5 2.238 -5 5 s 2.239 5 5 5 h 67.929 l -8.422 8.422 c -1.953 1.952 -1.953 5.118 0 7.07 c 0.976 0.977 2.256 1.465 3.535 1.465 s 2.56 -0.488 3.535 -1.465 L 88.53 66.206 c 0.232 -0.232 0.441 -0.486 0.624 -0.76 c 0.048 -0.072 0.079 -0.153 0.123 -0.227 C 89.4 65.015 89.522 64.811 89.614 64.589 z" style="stroke: none; stroke-width: 1; stroke-dasharray: none; stroke-linecap: butt; stroke-linejoin: miter; stroke-miterlimit: 10; fill: rgb(0,0,0); fill-rule: nonzero; opacity: 1;" transform=" matrix(1 0 0 1 0 0) " stroke-linecap="round" />
</g>
</svg>